<svg xmlns="http://www.w3.org/2000/svg" viewBox="0 0 548 231">
<g fill="black" stroke="none">
<path d="M 152,188 L 151,188 L 150,188 L 149,188 L 148,188 L 147,188 L 146,188 L 145,188 L 144,188 L 143,188 L 142,188 L 141,188 L 140,188 L 139,188 L 138,188 L 137,188 L 136,188 L 136,187 L 135,187 L 135,186 L 135,185 L 134,185 L 133,185 L 132,185 L 131,185 L 130,185 L 130,184 L 129,184 L 128,184 L 127,184 L 126,184 L 125,184 L 124,184 L 123,184 L 122,184 L 121,184 L 120,184 L 119,184 L 118,184 L 118,183 L 117,183 L 116,183 L 116,182 L 116,181 L 116,180 L 115,180 L 114,180 L 114,179 L 113,179 L 112,179 L 111,179 L 110,179 L 109,179 L 108,179 L 107,179 L 107,178 L 106,178 L 106,177 L 105,177 L 105,176 L 105,175 L 104,175 L 104,174 L 103,174 L 102,174 L 101,174 L 100,174 L 100,173 L 99,173 L 98,173 L 98,172 L 97,172 L 97,171 L 97,170 L 96,170 L 95,170 L 95,169 L 94,169 L 94,168 L 93,168 L 92,168 L 91,168 L 91,167 L 91,166 L 91,165 L 90,165 L 90,164 L 89,164 L 89,163 L 88,163 L 87,163 L 87,162 L 86,162 L 86,161 L 86,160 L 85,160 L 85,159 L 85,158 L 85,157 L 85,156 L 85,155 L 84,155 L 84,154 L 83,154 L 82,154 L 81,154 L 81,153 L 80,153 L 80,152 L 80,151 L 80,150 L 80,149 L 80,148 L 80,147 L 80,146 L 80,145 L 79,145 L 79,144 L 79,143 L 79,142 L 78,142 L 77,142 L 77,141 L 76,141 L 76,140 L 76,139 L 76,138 L 76,137 L 76,136 L 75,136 L 75,135 L 75,134 L 75,133 L 75,132 L 75,131 L 75,130 L 76,129 L 76,129 L 76,128 L 76,127 L 76,126 L 77,125 L 77,125 L 78,124 L 79,124 L 79,124 L 80,123 L 80,123 L 81,122 L 81,122 L 82,121 L 82,121 L 82,120 L 83,119 L 83,119 L 84,118 L 84,119 L 85,119 L 85,120 L 85,121 L 86,121 L 86,122 L 87,122 L 87,123 L 87,124 L 88,124 L 88,125 L 88,126 L 89,126 L 89,127 L 90,127 L 91,127 L 91,128 L 91,129 L 92,129 L 92,130 L 92,131 L 92,132 L 93,132 L 93,133 L 93,134 L 94,134 L 95,134 L 95,135 L 96,135 L 96,136 L 96,137 L 97,137 L 97,138 L 97,139 L 97,140 L 97,141 L 97,142 L 98,142 L 98,143 L 99,143 L 100,143 L 101,143 L 101,144 L 101,145 L 102,145 L 102,146 L 102,147 L 103,147 L 103,148 L 104,148 L 105,148 L 105,149 L 106,149 L 106,150 L 106,151 L 107,151 L 107,152 L 108,152 L 108,153 L 109,153 L 110,153 L 110,154 L 111,154 L 111,155 L 111,156 L 112,156 L 112,157 L 113,157 L 114,157 L 115,157 L 115,158 L 116,158 L 117,158 L 117,159 L 117,160 L 117,161 L 118,161 L 118,162 L 119,162 L 120,162 L 121,162 L 122,162 L 123,162 L 124,162 L 125,162 L 125,163 L 126,163 L 127,163 L 128,163 L 128,164 L 129,164 L 129,165 L 129,166 L 130,166 L 131,166 L 132,166 L 132,167 L 133,167 L 134,167 L 135,167 L 136,167 L 137,167 L 138,167 L 139,167 L 140,167 L 141,167 L 142,167 L 143,167 L 144,167 L 145,167 L 146,167 L 147,167 L 148,167 L 149,167 L 150,167 L 151,167 L 152,167 L 153,167 L 154,167 L 155,167 L 156,167 L 156,167 L 157,166 L 158,166 L 159,166 L 160,166 L 160,166 L 160,165 L 160,164 L 161,163 L 162,163 L 163,163 L 164,163 L 164,163 L 165,162 L 166,162 L 167,162 L 168,162 L 169,162 L 170,162 L 170,162 L 171,161 L 171,161 L 171,160 L 172,159 L 172,159 L 173,158 L 174,158 L 174,158 L 175,157 L 176,157 L 177,157 L 177,157 L 178,156 L 179,156 L 179,156 L 179,155 L 180,154 L 180,154 L 181,153 L 181,153 L 182,152 L 183,152 L 184,152 L 184,152 L 185,151 L 185,151 L 185,150 L 185,149 L 185,148 L 186,147 L 186,147 L 186,146 L 187,145 L 187,145 L 188,144 L 189,144 L 189,144 L 189,143 L 190,142 L 190,142 L 190,141 L 190,140 L 191,139 L 191,139 L 191,138 L 192,137 L 193,137 L 193,137 L 194,136 L 194,136 L 195,135 L 195,135 L 195,134 L 195,133 L 195,132 L 195,131 L 195,130 L 195,129 L 195,128 L 196,127 L 196,127 L 196,126 L 196,125 L 197,124 L 198,124 L 198,124 L 199,123 L 199,123 L 200,122 L 200,122 L 200,121 L 200,120 L 200,119 L 200,118 L 200,117 L 200,116 L 200,115 L 200,114 L 200,113 L 200,112 L 200,111 L 200,110 L 201,109 L 201,109 L 201,108 L 202,107 L 202,107 L 203,106 L 204,106 L 204,106 L 204,105 L 204,104 L 204,103 L 204,102 L 205,101 L 205,101 L 205,100 L 205,99 L 205,98 L 205,97 L 205,96 L 205,95 L 205,94 L 205,93 L 205,92 L 205,91 L 205,90 L 205,89 L 205,88 L 205,87 L 205,86 L 205,85 L 205,84 L 205,83 L 205,82 L 205,81 L 205,80 L 205,79 L 205,78 L 206,77 L 206,77 L 206,76 L 206,75 L 206,74 L 206,73 L 206,72 L 206,71 L 206,70 L 206,69 L 206,68 L 206,67 L 206,66 L 206,65 L 206,64 L 206,63 L 206,62 L 206,61 L 206,60 L 206,59 L 206,58 L 207,57 L 207,57 L 208,56 L 208,56 L 208,55 L 207,55 L 206,55 L 206,54 L 205,54 L 204,54 L 203,54 L 202,54 L 201,54 L 200,54 L 199,54 L 198,54 L 197,54 L 196,55 L 196,55 L 195,55 L 194,55 L 193,55 L 192,55 L 191,56 L 191,57 L 191,57 L 190,58 L 190,58 L 189,58 L 188,58 L 187,58 L 186,58 L 185,58 L 184,58 L 183,58 L 182,58 L 181,59 L 181,59 L 180,59 L 179,59 L 178,59 L 177,59 L 176,59 L 175,59 L 174,59 L 173,59 L 172,59 L 171,59 L 170,59 L 169,59 L 168,59 L 167,59 L 166,59 L 165,59 L 164,59 L 163,59 L 162,59 L 161,59 L 160,59 L 159,59 L 158,59 L 157,60 L 157,60 L 156,60 L 155,60 L 154,60 L 153,60 L 152,60 L 151,60 L 150,61 L 150,61 L 149,62 L 149,63 L 149,63 L 148,63 L 147,63 L 146,63 L 145,63 L 144,63 L 143,63 L 142,63 L 141,63 L 140,63 L 139,64 L 139,64 L 138,64 L 137,64 L 136,64 L 135,64 L 134,64 L 133,64 L 132,64 L 131,64 L 130,64 L 129,64 L 128,64 L 127,64 L 126,64 L 125,64 L 124,64 L 123,64 L 122,64 L 121,64 L 120,64 L 119,64 L 118,64 L 117,64 L 116,64 L 115,64 L 114,64 L 113,64 L 112,64 L 111,64 L 110,64 L 109,64 L 108,64 L 107,64 L 106,64 L 105,64 L 104,64 L 103,64 L 102,64 L 101,64 L 100,64 L 99,64 L 98,64 L 97,64 L 96,64 L 95,64 L 94,64 L 93,64 L 92,64 L 91,64 L 90,64 L 89,64 L 88,64 L 87,64 L 86,64 L 85,64 L 84,64 L 83,64 L 82,64 L 81,64 L 80,64 L 79,64 L 78,64 L 77,64 L 76,64 L 76,63 L 75,63 L 74,63 L 73,63 L 73,62 L 73,61 L 72,61 L 72,60 L 71,60 L 71,59 L 70,59 L 69,59 L 68,59 L 67,59 L 67,58 L 66,58 L 66,57 L 65,57 L 65,56 L 65,55 L 65,54 L 65,53 L 65,52 L 65,51 L 65,50 L 65,49 L 66,48 L 66,48 L 67,47 L 68,47 L 69,47 L 70,47 L 71,47 L 72,47 L 73,47 L 74,47 L 74,47 L 75,46 L 76,46 L 77,46 L 78,46 L 79,46 L 79,46 L 79,45 L 80,44 L 81,44 L 81,44 L 82,43 L 83,43 L 84,43 L 85,43 L 86,43 L 87,43 L 88,43 L 89,43 L 90,43 L 91,43 L 92,43 L 93,43 L 94,43 L 95,43 L 96,43 L 97,43 L 98,43 L 99,43 L 100,43 L 101,43 L 102,43 L 103,43 L 104,43 L 105,43 L 106,43 L 107,43 L 108,43 L 109,43 L 110,43 L 111,43 L 112,43 L 113,43 L 114,43 L 115,43 L 116,43 L 117,43 L 118,43 L 119,43 L 120,43 L 121,43 L 122,43 L 123,43 L 124,43 L 124,43 L 125,42 L 126,42 L 127,42 L 128,42 L 129,42 L 130,42 L 131,42 L 132,42 L 133,42 L 134,42 L 135,42 L 136,42 L 137,42 L 138,42 L 139,42 L 140,42 L 141,42 L 142,42 L 143,42 L 144,42 L 145,42 L 146,42 L 147,42 L 148,42 L 149,42 L 150,42 L 151,42 L 152,42 L 153,42 L 154,42 L 155,42 L 156,42 L 157,42 L 158,42 L 159,42 L 160,42 L 161,42 L 162,42 L 163,42 L 164,42 L 165,42 L 166,42 L 167,42 L 168,42 L 169,42 L 170,42 L 171,42 L 172,42 L 173,42 L 174,42 L 175,42 L 176,42 L 177,42 L 178,42 L 179,42 L 180,42 L 181,42 L 182,42 L 183,42 L 184,42 L 185,42 L 186,42 L 187,42 L 188,42 L 189,42 L 190,42 L 191,42 L 192,42 L 193,42 L 194,42 L 195,42 L 196,42 L 197,42 L 198,42 L 199,42 L 200,42 L 201,42 L 202,42 L 203,42 L 204,42 L 205,42 L 206,42 L 207,42 L 208,42 L 208,42 L 209,41 L 210,41 L 211,41 L 212,41 L 213,41 L 214,41 L 215,41 L 216,41 L 217,41 L 218,41 L 219,41 L 220,41 L 221,41 L 222,41 L 223,41 L 224,41 L 225,41 L 226,41 L 227,41 L 228,41 L 229,41 L 230,41 L 230,42 L 231,42 L 232,42 L 233,42 L 234,42 L 235,42 L 236,42 L 236,43 L 237,43 L 237,44 L 237,45 L 237,46 L 237,47 L 237,48 L 237,49 L 237,49 L 236,50 L 236,50 L 235,51 L 235,51 L 234,52 L 234,52 L 233,53 L 233,53 L 232,53 L 231,54 L 231,54 L 230,54 L 229,54 L 228,54 L 227,54 L 226,54 L 225,54 L 224,54 L 223,54 L 222,54 L 221,54 L 220,54 L 220,53 L 219,53 L 218,54 L 218,54 L 217,55 L 217,55 L 216,56 L 217,56 L 217,57 L 217,58 L 217,59 L 217,60 L 217,61 L 217,62 L 218,62 L 218,63 L 218,64 L 218,65 L 218,66 L 218,67 L 219,67 L 220,67 L 220,68 L 221,68 L 221,69 L 221,70 L 221,71 L 221,72 L 221,73 L 221,74 L 221,75 L 221,76 L 222,76 L 222,77 L 222,78 L 222,79 L 222,80 L 222,81 L 222,82 L 222,83 L 222,84 L 222,85 L 222,86 L 222,87 L 222,88 L 222,89 L 222,90 L 222,91 L 222,92 L 222,93 L 222,94 L 222,95 L 222,96 L 222,97 L 222,98 L 222,99 L 222,100 L 222,101 L 222,102 L 222,103 L 222,104 L 222,105 L 222,106 L 222,107 L 222,108 L 222,108 L 221,109 L 221,110 L 221,111 L 221,112 L 221,113 L 221,114 L 221,114 L 220,114 L 219,114 L 218,115 L 218,116 L 218,117 L 218,118 L 218,118 L 217,119 L 217,120 L 217,121 L 217,122 L 217,123 L 217,124 L 217,125 L 217,126 L 217,127 L 217,128 L 217,129 L 217,130 L 217,131 L 217,131 L 216,132 L 216,132 L 215,133 L 215,133 L 214,133 L 213,134 L 213,134 L 212,135 L 212,136 L 212,137 L 212,138 L 212,139 L 212,140 L 212,141 L 212,142 L 212,142 L 211,143 L 211,143 L 210,144 L 210,144 L 209,144 L 208,145 L 208,145 L 207,146 L 207,147 L 207,148 L 207,149 L 207,150 L 207,151 L 207,151 L 206,152 L 206,153 L 206,153 L 205,153 L 204,153 L 203,154 L 203,154 L 202,155 L 202,156 L 202,157 L 202,157 L 201,158 L 201,159 L 201,159 L 200,159 L 199,159 L 198,160 L 198,160 L 197,161 L 197,162 L 197,163 L 197,163 L 196,164 L 196,164 L 195,164 L 194,164 L 193,165 L 193,165 L 192,166 L 192,167 L 192,168 L 192,168 L 191,169 L 191,169 L 190,169 L 189,169 L 188,170 L 188,170 L 187,171 L 187,172 L 187,173 L 187,173 L 186,173 L 185,174 L 185,174 L 184,174 L 183,174 L 182,175 L 182,175 L 181,176 L 181,177 L 181,177 L 180,178 L 180,178 L 179,178 L 178,179 L 178,179 L 177,179 L 176,179 L 175,179 L 174,179 L 173,180 L 173,180 L 172,180 L 171,181 L 171,182 L 171,183 L 171,183 L 170,183 L 169,184 L 169,184 L 168,184 L 167,184 L 166,184 L 165,184 L 164,184 L 163,184 L 162,184 L 161,184 L 160,184 L 159,184 L 158,185 L 158,185 L 157,185 L 156,185 L 155,185 L 154,185 L 153,186 L 153,187 L 153,187 L 152,188 L 152,188 Z"/>
<path d="M 440,104 L 439,104 L 438,104 L 437,104 L 436,104 L 435,104 L 434,104 L 433,104 L 432,104 L 431,104 L 430,104 L 429,104 L 428,104 L 427,104 L 426,104 L 425,104 L 424,104 L 423,104 L 422,104 L 421,104 L 421,103 L 420,103 L 420,102 L 419,102 L 419,101 L 419,100 L 418,100 L 417,100 L 417,99 L 416,99 L 416,98 L 415,98 L 415,97 L 415,96 L 415,95 L 415,94 L 415,93 L 415,92 L 415,91 L 416,90 L 416,90 L 416,89 L 417,88 L 418,88 L 419,88 L 419,88 L 420,87 L 420,87 L 421,86 L 422,86 L 422,86 L 422,85 L 422,84 L 423,83 L 424,83 L 425,83 L 426,83 L 426,83 L 427,82 L 428,82 L 429,82 L 430,82 L 431,82 L 432,82 L 433,82 L 434,82 L 435,82 L 436,82 L 437,82 L 438,82 L 439,82 L 440,82 L 440,83 L 441,83 L 442,83 L 442,84 L 442,85 L 442,86 L 443,86 L 443,87 L 444,87 L 445,87 L 446,87 L 446,88 L 447,88 L 447,89 L 447,90 L 447,91 L 447,92 L 447,93 L 447,94 L 447,95 L 447,96 L 447,97 L 447,97 L 446,98 L 446,98 L 445,99 L 445,99 L 444,99 L 443,99 L 442,100 L 442,100 L 441,101 L 441,102 L 441,103 L 441,103 L 440,104 L 440,104 Z"/>
<path d="M 258,159 L 257,159 L 256,159 L 255,159 L 254,159 L 253,159 L 252,159 L 251,159 L 250,159 L 249,159 L 248,159 L 247,159 L 246,159 L 245,159 L 244,159 L 243,159 L 242,159 L 241,159 L 241,158 L 240,158 L 240,157 L 239,157 L 239,156 L 239,155 L 238,155 L 237,155 L 237,154 L 236,154 L 235,154 L 235,153 L 234,153 L 234,152 L 234,151 L 233,151 L 233,150 L 232,150 L 231,150 L 231,149 L 231,148 L 230,148 L 230,147 L 230,146 L 230,145 L 230,144 L 230,143 L 230,142 L 229,142 L 229,141 L 229,140 L 229,139 L 229,138 L 229,137 L 229,136 L 229,135 L 229,134 L 229,133 L 229,132 L 229,131 L 229,130 L 230,129 L 230,129 L 230,128 L 230,127 L 230,126 L 230,125 L 230,124 L 230,123 L 230,122 L 230,121 L 230,120 L 231,119 L 231,119 L 232,118 L 233,118 L 233,118 L 234,117 L 234,117 L 235,116 L 235,116 L 235,115 L 235,114 L 236,113 L 236,113 L 236,112 L 237,111 L 238,111 L 239,111 L 239,111 L 239,110 L 239,109 L 240,108 L 241,108 L 241,108 L 242,107 L 243,107 L 244,107 L 245,107 L 245,107 L 246,106 L 247,106 L 247,106 L 247,105 L 247,104 L 248,103 L 249,103 L 250,103 L 251,103 L 252,103 L 253,103 L 254,103 L 254,104 L 255,104 L 255,105 L 255,106 L 256,106 L 257,106 L 257,107 L 258,107 L 259,107 L 260,107 L 261,107 L 262,107 L 263,107 L 263,108 L 264,108 L 265,108 L 265,109 L 266,109 L 266,110 L 266,111 L 267,111 L 267,112 L 267,113 L 268,113 L 268,114 L 268,115 L 269,115 L 270,115 L 270,116 L 271,116 L 271,117 L 271,118 L 271,119 L 272,119 L 272,120 L 272,121 L 272,122 L 272,123 L 272,124 L 272,125 L 272,126 L 272,127 L 272,128 L 272,129 L 272,130 L 272,131 L 272,132 L 272,133 L 272,134 L 272,135 L 272,136 L 272,137 L 272,138 L 272,139 L 272,140 L 272,141 L 272,142 L 272,142 L 271,143 L 271,144 L 271,145 L 271,146 L 271,146 L 270,147 L 270,147 L 269,147 L 268,148 L 268,149 L 268,149 L 267,150 L 267,151 L 267,152 L 267,152 L 266,153 L 266,153 L 265,154 L 265,154 L 264,154 L 263,154 L 262,155 L 262,155 L 261,156 L 261,157 L 261,157 L 260,158 L 260,158 L 259,158 L 258,159 L 258,159 Z"/>
<path d="M 354,169 L 353,169 L 352,169 L 351,169 L 351,168 L 350,168 L 349,168 L 348,168 L 347,168 L 347,167 L 347,166 L 346,166 L 346,165 L 345,165 L 345,164 L 344,164 L 344,163 L 343,163 L 342,163 L 342,162 L 341,162 L 341,161 L 341,160 L 340,160 L 340,159 L 340,158 L 340,157 L 340,156 L 340,155 L 340,154 L 340,153 L 340,152 L 340,151 L 340,150 L 340,149 L 340,148 L 340,147 L 340,146 L 340,145 L 340,144 L 340,143 L 340,142 L 340,141 L 340,140 L 340,139 L 340,138 L 340,137 L 340,136 L 340,135 L 340,134 L 339,134 L 339,133 L 339,132 L 338,133 L 338,134 L 338,135 L 338,135 L 337,136 L 337,137 L 337,138 L 337,139 L 337,140 L 337,141 L 337,142 L 337,143 L 337,144 L 337,144 L 336,145 L 336,146 L 336,147 L 336,147 L 335,148 L 335,148 L 334,148 L 333,149 L 333,149 L 332,150 L 332,151 L 332,152 L 332,153 L 332,154 L 332,155 L 332,155 L 331,156 L 331,157 L 331,157 L 330,158 L 330,158 L 329,158 L 328,159 L 328,159 L 327,160 L 327,160 L 326,161 L 326,162 L 326,163 L 326,163 L 325,163 L 324,164 L 324,164 L 323,164 L 322,164 L 321,164 L 320,164 L 319,164 L 318,164 L 317,164 L 316,164 L 315,164 L 314,164 L 313,164 L 312,164 L 311,164 L 311,163 L 310,163 L 310,162 L 310,161 L 310,160 L 309,160 L 309,159 L 308,159 L 307,159 L 306,159 L 306,158 L 306,157 L 305,157 L 305,156 L 305,155 L 305,154 L 305,153 L 305,152 L 304,152 L 304,151 L 304,150 L 304,149 L 303,150 L 303,151 L 303,151 L 302,152 L 302,153 L 302,154 L 302,155 L 302,156 L 302,156 L 301,157 L 301,158 L 301,158 L 300,159 L 300,159 L 299,159 L 298,160 L 298,160 L 297,161 L 297,162 L 297,163 L 297,163 L 296,164 L 296,164 L 295,165 L 295,165 L 294,165 L 293,166 L 293,167 L 293,167 L 292,168 L 292,168 L 291,169 L 291,169 L 290,169 L 289,169 L 288,169 L 287,169 L 286,169 L 285,169 L 284,169 L 284,168 L 283,168 L 282,168 L 282,167 L 282,166 L 281,166 L 281,165 L 280,165 L 280,164 L 279,164 L 279,163 L 278,163 L 277,163 L 277,162 L 276,162 L 276,161 L 275,161 L 275,160 L 275,159 L 275,158 L 275,157 L 275,156 L 275,155 L 275,154 L 275,153 L 275,152 L 275,151 L 275,150 L 275,149 L 275,148 L 275,147 L 275,146 L 275,145 L 275,144 L 275,143 L 275,142 L 275,141 L 275,140 L 275,139 L 275,138 L 275,137 L 275,136 L 275,135 L 275,134 L 275,133 L 275,132 L 275,131 L 275,130 L 275,129 L 275,128 L 275,127 L 276,126 L 276,126 L 276,125 L 276,124 L 276,123 L 276,122 L 276,121 L 276,120 L 276,119 L 276,118 L 275,118 L 275,117 L 275,116 L 275,115 L 276,114 L 276,114 L 276,113 L 276,112 L 277,111 L 277,111 L 278,110 L 278,110 L 279,109 L 279,109 L 280,108 L 281,108 L 281,108 L 282,107 L 283,107 L 284,107 L 285,107 L 286,107 L 287,107 L 288,107 L 289,107 L 290,107 L 291,107 L 292,107 L 293,107 L 293,108 L 294,108 L 295,108 L 295,109 L 296,109 L 296,110 L 296,111 L 296,112 L 296,113 L 296,114 L 296,115 L 297,115 L 297,116 L 297,116 L 296,117 L 296,118 L 296,119 L 296,120 L 296,121 L 296,122 L 296,123 L 296,123 L 295,124 L 296,124 L 296,125 L 296,125 L 295,126 L 295,126 L 294,126 L 293,127 L 293,128 L 293,129 L 293,129 L 292,130 L 292,131 L 292,132 L 292,133 L 292,134 L 292,135 L 292,136 L 292,137 L 292,138 L 292,139 L 292,140 L 292,141 L 292,142 L 292,143 L 292,144 L 292,145 L 292,145 L 291,146 L 292,146 L 292,147 L 292,148 L 292,149 L 292,150 L 292,150 L 291,151 L 292,151 L 292,152 L 293,152 L 294,152 L 294,152 L 295,151 L 295,151 L 295,150 L 295,149 L 295,148 L 295,147 L 295,146 L 295,145 L 296,144 L 296,144 L 296,143 L 296,142 L 296,141 L 296,140 L 297,139 L 297,139 L 298,138 L 299,138 L 299,138 L 299,137 L 300,136 L 300,136 L 300,135 L 300,134 L 300,133 L 300,132 L 300,131 L 300,130 L 300,129 L 300,128 L 300,127 L 300,126 L 301,125 L 301,125 L 301,124 L 301,123 L 301,122 L 302,121 L 302,121 L 303,120 L 304,120 L 304,120 L 304,119 L 305,118 L 305,118 L 305,117 L 305,116 L 305,115 L 306,114 L 306,114 L 306,113 L 307,112 L 308,112 L 309,112 L 310,112 L 311,112 L 312,112 L 313,112 L 314,112 L 315,112 L 316,112 L 316,113 L 317,113 L 318,113 L 318,114 L 319,114 L 319,115 L 320,115 L 320,116 L 321,116 L 321,117 L 321,118 L 322,118 L 322,119 L 322,120 L 322,121 L 322,122 L 322,123 L 322,124 L 322,125 L 322,126 L 322,127 L 322,128 L 322,129 L 322,129 L 321,130 L 321,131 L 321,132 L 321,133 L 321,134 L 321,135 L 321,136 L 321,137 L 321,138 L 321,139 L 321,140 L 321,140 L 320,141 L 320,142 L 320,143 L 320,144 L 320,144 L 319,144 L 318,145 L 318,146 L 318,147 L 319,147 L 320,147 L 321,147 L 321,148 L 322,148 L 322,149 L 323,149 L 323,150 L 324,150 L 324,150 L 324,149 L 325,148 L 325,148 L 325,147 L 325,146 L 325,145 L 325,144 L 325,143 L 325,142 L 325,141 L 326,140 L 326,140 L 326,139 L 327,138 L 327,138 L 328,137 L 329,137 L 329,137 L 330,136 L 330,136 L 330,135 L 330,134 L 330,133 L 330,132 L 330,131 L 330,130 L 330,129 L 330,128 L 330,127 L 331,126 L 331,126 L 331,125 L 331,124 L 330,124 L 330,123 L 330,122 L 330,121 L 330,120 L 330,119 L 330,118 L 330,117 L 330,116 L 330,115 L 330,114 L 331,113 L 332,113 L 332,113 L 333,112 L 334,112 L 334,112 L 335,111 L 335,111 L 335,110 L 336,109 L 336,109 L 337,108 L 337,108 L 338,107 L 339,107 L 340,107 L 341,107 L 341,108 L 342,108 L 343,108 L 344,108 L 344,109 L 345,109 L 345,110 L 346,110 L 346,111 L 346,112 L 346,113 L 346,114 L 346,115 L 346,116 L 347,116 L 347,117 L 347,118 L 348,118 L 348,119 L 349,119 L 349,119 L 350,118 L 351,118 L 351,118 L 352,117 L 353,117 L 354,117 L 355,117 L 355,118 L 356,118 L 357,118 L 357,119 L 358,119 L 358,120 L 358,121 L 358,122 L 358,123 L 358,124 L 359,124 L 360,124 L 360,125 L 361,125 L 361,126 L 361,126 L 360,127 L 360,127 L 359,127 L 359,126 L 358,127 L 358,128 L 358,129 L 358,129 L 357,130 L 357,131 L 357,132 L 357,133 L 357,134 L 357,135 L 357,136 L 357,137 L 357,138 L 357,139 L 357,140 L 357,141 L 357,142 L 357,143 L 357,144 L 357,145 L 357,146 L 357,146 L 356,147 L 356,148 L 356,149 L 356,150 L 356,150 L 355,151 L 356,151 L 356,152 L 357,152 L 357,153 L 358,153 L 359,153 L 359,153 L 360,152 L 360,152 L 360,151 L 360,150 L 360,149 L 360,148 L 361,147 L 361,147 L 361,146 L 361,145 L 362,144 L 362,144 L 363,143 L 364,143 L 364,143 L 364,142 L 365,141 L 365,141 L 365,140 L 365,139 L 365,138 L 365,137 L 365,136 L 365,135 L 366,134 L 366,134 L 366,133 L 366,132 L 367,131 L 367,131 L 368,130 L 369,130 L 369,130 L 369,129 L 369,128 L 369,127 L 370,126 L 370,126 L 370,125 L 370,124 L 370,123 L 369,123 L 369,122 L 369,121 L 370,120 L 370,120 L 370,119 L 370,118 L 370,117 L 370,116 L 370,115 L 370,114 L 370,113 L 371,112 L 371,112 L 372,111 L 372,111 L 373,110 L 373,110 L 374,109 L 374,109 L 375,108 L 375,108 L 376,107 L 377,107 L 378,107 L 379,107 L 380,107 L 381,107 L 382,107 L 383,107 L 384,107 L 385,107 L 386,107 L 386,108 L 387,108 L 387,109 L 387,110 L 388,110 L 388,111 L 388,112 L 388,113 L 388,114 L 388,115 L 388,116 L 388,117 L 388,117 L 387,118 L 387,119 L 387,120 L 387,121 L 387,122 L 387,123 L 387,124 L 387,125 L 387,126 L 387,127 L 388,127 L 388,128 L 389,128 L 389,128 L 390,127 L 390,127 L 390,126 L 390,125 L 390,124 L 391,123 L 391,123 L 391,122 L 392,121 L 393,121 L 393,121 L 394,120 L 394,120 L 394,119 L 395,118 L 396,118 L 396,118 L 397,117 L 398,117 L 399,117 L 400,117 L 401,117 L 402,117 L 403,117 L 404,117 L 405,117 L 406,117 L 406,118 L 407,118 L 407,119 L 408,119 L 408,120 L 408,121 L 408,122 L 408,123 L 408,124 L 408,124 L 407,125 L 407,126 L 407,127 L 407,128 L 407,129 L 407,130 L 407,131 L 407,132 L 407,133 L 407,134 L 407,135 L 407,136 L 407,137 L 407,138 L 407,139 L 407,140 L 407,141 L 407,142 L 407,143 L 407,144 L 407,145 L 407,146 L 408,146 L 408,147 L 409,147 L 409,147 L 410,146 L 410,146 L 410,145 L 410,144 L 411,143 L 411,143 L 412,142 L 413,142 L 413,142 L 414,141 L 415,141 L 415,141 L 415,140 L 415,139 L 415,138 L 415,137 L 415,136 L 416,135 L 416,135 L 416,134 L 417,133 L 418,133 L 418,133 L 419,132 L 419,132 L 420,131 L 420,131 L 420,130 L 420,129 L 420,128 L 420,127 L 420,126 L 420,125 L 420,124 L 420,123 L 420,122 L 420,121 L 420,120 L 420,119 L 420,118 L 420,117 L 420,116 L 420,115 L 421,114 L 421,114 L 422,113 L 423,113 L 423,113 L 424,112 L 425,112 L 426,112 L 426,112 L 427,111 L 428,111 L 428,111 L 428,110 L 428,109 L 429,108 L 429,109 L 429,110 L 429,111 L 430,111 L 431,111 L 431,112 L 432,112 L 433,112 L 434,112 L 435,112 L 436,112 L 436,113 L 437,113 L 437,114 L 437,115 L 437,116 L 437,117 L 438,117 L 438,118 L 438,119 L 438,120 L 438,121 L 438,122 L 438,123 L 438,123 L 437,124 L 437,125 L 437,126 L 437,127 L 437,128 L 437,129 L 437,130 L 437,131 L 437,132 L 437,133 L 437,134 L 437,135 L 437,136 L 437,137 L 437,138 L 437,139 L 437,140 L 437,141 L 437,142 L 437,143 L 437,143 L 436,144 L 436,145 L 436,146 L 437,146 L 437,147 L 437,148 L 437,149 L 437,150 L 437,151 L 438,151 L 438,152 L 439,152 L 439,152 L 440,151 L 440,151 L 440,150 L 440,149 L 440,148 L 440,147 L 440,146 L 441,145 L 441,145 L 441,144 L 441,143 L 442,142 L 443,142 L 444,142 L 444,142 L 444,141 L 444,140 L 445,139 L 445,139 L 445,138 L 445,137 L 445,136 L 445,135 L 445,134 L 445,133 L 445,132 L 445,131 L 445,130 L 446,129 L 446,129 L 446,128 L 447,127 L 448,127 L 448,127 L 449,126 L 449,126 L 449,125 L 450,124 L 450,124 L 451,123 L 451,123 L 452,122 L 453,122 L 454,122 L 455,122 L 456,122 L 456,123 L 457,123 L 457,124 L 457,125 L 457,126 L 457,127 L 457,128 L 457,129 L 457,130 L 457,131 L 457,132 L 457,133 L 457,134 L 457,135 L 457,136 L 457,137 L 457,137 L 456,138 L 456,139 L 456,139 L 455,140 L 455,140 L 454,140 L 453,141 L 453,142 L 453,143 L 453,143 L 452,144 L 452,145 L 452,146 L 452,147 L 452,148 L 452,149 L 452,150 L 452,150 L 451,151 L 451,152 L 451,152 L 450,152 L 449,153 L 449,153 L 448,154 L 448,154 L 447,155 L 447,156 L 447,157 L 447,157 L 446,158 L 446,158 L 445,159 L 445,159 L 444,159 L 443,160 L 443,160 L 442,161 L 442,162 L 442,162 L 441,163 L 441,164 L 441,164 L 440,164 L 439,164 L 438,164 L 437,164 L 436,164 L 435,164 L 434,164 L 433,164 L 432,164 L 431,164 L 430,164 L 429,164 L 428,164 L 427,164 L 427,163 L 426,163 L 426,162 L 426,161 L 426,160 L 425,160 L 425,159 L 424,159 L 424,158 L 423,158 L 423,157 L 422,157 L 421,157 L 421,156 L 421,155 L 421,154 L 421,153 L 421,152 L 421,151 L 421,150 L 420,150 L 420,149 L 419,149 L 419,148 L 418,149 L 418,149 L 417,150 L 417,151 L 417,152 L 417,152 L 416,153 L 416,154 L 416,154 L 415,154 L 414,154 L 413,155 L 413,155 L 412,156 L 412,157 L 412,158 L 412,158 L 411,159 L 411,159 L 410,159 L 409,159 L 408,159 L 407,159 L 406,159 L 405,159 L 404,159 L 403,159 L 402,159 L 401,159 L 400,159 L 400,158 L 399,158 L 398,158 L 397,158 L 397,157 L 396,157 L 396,156 L 396,155 L 396,154 L 395,154 L 395,153 L 395,152 L 395,151 L 395,150 L 395,149 L 394,149 L 394,148 L 394,147 L 394,146 L 394,145 L 394,144 L 394,143 L 394,142 L 394,141 L 394,140 L 394,139 L 393,140 L 393,141 L 393,142 L 393,143 L 393,144 L 393,144 L 392,145 L 392,146 L 392,146 L 391,146 L 391,145 L 390,145 L 390,144 L 389,144 L 389,143 L 388,144 L 388,145 L 388,146 L 388,147 L 388,147 L 387,148 L 387,149 L 387,150 L 387,151 L 387,152 L 387,153 L 387,154 L 387,155 L 387,156 L 387,157 L 387,158 L 387,158 L 386,159 L 386,160 L 386,160 L 385,160 L 384,160 L 383,161 L 383,162 L 383,163 L 383,163 L 382,163 L 381,164 L 381,164 L 380,164 L 379,164 L 378,164 L 377,164 L 376,164 L 375,164 L 374,164 L 373,164 L 373,163 L 372,163 L 372,162 L 371,162 L 371,161 L 371,160 L 370,160 L 370,159 L 370,158 L 370,157 L 370,156 L 370,155 L 369,155 L 369,154 L 369,153 L 368,154 L 368,155 L 368,155 L 367,156 L 367,157 L 367,158 L 367,158 L 366,159 L 366,159 L 365,160 L 365,160 L 364,160 L 363,161 L 363,162 L 363,162 L 362,163 L 362,163 L 361,164 L 361,164 L 360,164 L 359,164 L 358,165 L 358,165 L 357,165 L 356,166 L 356,167 L 356,168 L 356,168 L 355,168 L 354,169 L 354,169 Z"/>
<path d="M 254,148 L 255,147 L 255,147 L 256,146 L 256,146 L 256,145 L 256,144 L 255,144 L 255,143 L 255,142 L 255,141 L 255,140 L 256,139 L 256,139 L 256,138 L 256,137 L 256,136 L 256,135 L 256,134 L 256,133 L 256,132 L 256,131 L 256,130 L 256,129 L 256,128 L 256,127 L 255,127 L 255,126 L 255,125 L 255,124 L 255,123 L 255,122 L 255,121 L 255,120 L 255,119 L 255,118 L 255,117 L 254,117 L 254,116 L 254,115 L 254,114 L 253,115 L 253,115 L 252,115 L 251,115 L 250,115 L 249,115 L 248,116 L 248,117 L 248,117 L 247,118 L 247,119 L 247,120 L 247,121 L 247,122 L 247,123 L 247,124 L 247,125 L 247,126 L 247,127 L 247,128 L 247,129 L 247,130 L 247,131 L 247,132 L 247,133 L 247,134 L 247,135 L 247,136 L 247,137 L 247,138 L 247,139 L 247,140 L 247,141 L 247,142 L 247,143 L 248,143 L 248,144 L 248,145 L 248,146 L 249,146 L 250,146 L 251,146 L 251,147 L 252,147 L 253,147 L 253,148 L 254,148 L 254,148 Z"/>
<path d="M 249,203 L 248,203 L 248,202 L 247,202 L 247,201 L 246,201 L 247,200 L 247,200 L 248,199 L 248,199 L 249,198 L 249,199 L 250,199 L 251,199 L 252,199 L 253,199 L 254,199 L 255,199 L 256,199 L 257,199 L 258,199 L 259,199 L 260,199 L 261,199 L 262,199 L 263,199 L 263,200 L 264,200 L 264,200 L 265,199 L 266,199 L 267,199 L 268,199 L 269,199 L 270,199 L 271,199 L 272,199 L 272,200 L 273,200 L 274,200 L 275,200 L 276,200 L 276,200 L 277,199 L 278,199 L 279,199 L 280,199 L 281,199 L 282,199 L 282,200 L 283,200 L 284,200 L 285,200 L 286,200 L 287,200 L 288,200 L 289,200 L 290,200 L 291,200 L 292,200 L 292,200 L 293,199 L 294,199 L 295,199 L 295,200 L 296,200 L 297,200 L 298,200 L 299,200 L 300,200 L 301,200 L 302,200 L 303,200 L 303,200 L 304,199 L 305,199 L 305,200 L 306,200 L 307,200 L 308,200 L 309,200 L 310,200 L 311,200 L 312,200 L 313,200 L 314,200 L 315,200 L 315,200 L 316,199 L 317,199 L 318,199 L 319,199 L 320,199 L 321,199 L 322,199 L 322,200 L 323,200 L 324,200 L 325,200 L 325,200 L 326,199 L 327,199 L 328,199 L 329,199 L 330,199 L 331,199 L 332,199 L 333,199 L 334,199 L 335,199 L 335,200 L 336,200 L 336,201 L 336,201 L 335,202 L 335,202 L 334,202 L 333,202 L 332,202 L 331,202 L 330,202 L 329,202 L 328,202 L 327,202 L 326,202 L 325,202 L 324,202 L 324,201 L 323,201 L 322,202 L 322,202 L 321,202 L 320,202 L 319,202 L 318,202 L 317,202 L 316,202 L 315,202 L 315,201 L 314,201 L 313,201 L 312,201 L 311,201 L 310,201 L 309,201 L 308,201 L 307,201 L 306,201 L 305,202 L 305,202 L 304,202 L 303,202 L 302,202 L 302,201 L 301,201 L 300,201 L 299,201 L 298,201 L 297,201 L 296,201 L 295,202 L 295,202 L 294,202 L 293,202 L 292,202 L 292,201 L 291,201 L 290,201 L 289,201 L 288,201 L 287,201 L 286,201 L 285,201 L 284,202 L 284,202 L 283,202 L 283,201 L 282,202 L 282,202 L 281,202 L 280,202 L 279,202 L 278,202 L 277,202 L 276,202 L 275,202 L 275,201 L 274,201 L 273,202 L 273,202 L 272,202 L 271,202 L 270,202 L 269,202 L 268,202 L 267,202 L 266,202 L 265,202 L 264,202 L 264,201 L 263,202 L 263,202 L 262,202 L 261,202 L 260,202 L 259,202 L 258,202 L 257,202 L 256,202 L 255,202 L 254,202 L 253,202 L 252,202 L 251,202 L 250,202 L 249,203 L 249,203 Z"/>
<path d="M 374,203 L 373,203 L 373,202 L 372,202 L 371,202 L 370,202 L 370,201 L 369,201 L 368,201 L 367,201 L 366,202 L 366,202 L 365,202 L 364,202 L 363,202 L 362,202 L 361,202 L 360,202 L 359,202 L 358,202 L 357,202 L 356,202 L 355,202 L 354,202 L 353,202 L 352,202 L 351,202 L 350,202 L 349,202 L 348,202 L 347,202 L 346,202 L 345,202 L 344,202 L 343,202 L 343,201 L 342,201 L 341,201 L 342,200 L 343,200 L 343,200 L 344,199 L 345,199 L 346,199 L 347,199 L 348,199 L 349,199 L 350,199 L 351,199 L 352,199 L 353,199 L 354,199 L 355,199 L 356,199 L 357,199 L 358,199 L 359,199 L 360,199 L 361,199 L 362,199 L 363,199 L 364,199 L 365,199 L 366,199 L 366,200 L 367,200 L 368,200 L 369,200 L 370,200 L 370,200 L 371,199 L 372,199 L 373,199 L 373,199 L 374,198 L 374,199 L 375,199 L 375,200 L 376,200 L 376,201 L 376,201 L 375,202 L 375,202 L 374,203 L 374,203 Z"/>
<path d="M 126,202 L 125,202 L 124,202 L 123,202 L 122,202 L 121,202 L 120,202 L 119,202 L 119,201 L 118,201 L 117,201 L 116,202 L 116,202 L 115,202 L 114,202 L 113,202 L 112,202 L 111,202 L 110,202 L 109,202 L 108,202 L 107,202 L 107,201 L 106,201 L 105,201 L 104,201 L 105,200 L 106,200 L 107,200 L 107,200 L 108,199 L 109,199 L 110,199 L 111,199 L 112,199 L 113,199 L 114,199 L 115,199 L 116,199 L 116,200 L 117,200 L 118,200 L 119,200 L 119,200 L 120,199 L 121,199 L 122,199 L 123,199 L 124,199 L 125,199 L 126,199 L 126,200 L 127,200 L 128,200 L 129,200 L 130,200 L 131,200 L 131,201 L 131,201 L 130,201 L 129,201 L 128,201 L 127,201 L 126,202 L 126,202 Z"/>
</g></svg>